<?xml version="1.0" encoding="utf-8"?>
<!-- Generator: Adobe Illustrator 28.0.0, SVG Export Plug-In . SVG Version: 6.00 Build 0)  -->
<svg version="1.1" id="Layer_2_00000047744970125036799000000006182359497674737553_"
	 xmlns="http://www.w3.org/2000/svg" xmlns:xlink="http://www.w3.org/1999/xlink" x="0px" y="0px" viewBox="0 0 161.7 66.8"
	 style="enable-background:new 0 0 161.7 66.8;" xml:space="preserve">
<style type="text/css">
	.st0{opacity:0.5;}
	.st1{fill:#AFB9DB;}
	.st2{fill:url(#SVGID_1_);}
	.st3{fill:url(#SVGID_00000139974575530503538260000005625460477206563994_);}
	.st4{fill:url(#SVGID_00000019651583393192665380000000054760976308245661_);}
	.st5{fill:url(#SVGID_00000077307653368914874900000006182862644131307952_);}
	.st6{fill:url(#SVGID_00000083065040821574858980000013690837319674588294_);}
	
		.st7{fill:none;stroke:url(#SVGID_00000152259181369562525690000006294893220417938840_);stroke-width:0.9781;stroke-miterlimit:9.7808;}
	
		.st8{fill:none;stroke:url(#SVGID_00000129902456992926099600000002281903908044776877_);stroke-width:0.9781;stroke-miterlimit:9.7808;}
	
		.st9{fill:none;stroke:url(#SVGID_00000075133781357198013680000010768893372885098370_);stroke-width:0.9781;stroke-miterlimit:9.7808;}
	
		.st10{fill:none;stroke:url(#SVGID_00000168098924550318275960000006822632265998025612_);stroke-width:0.9781;stroke-miterlimit:9.7808;}
	
		.st11{fill:none;stroke:url(#SVGID_00000109024806202770622720000002910508955666744228_);stroke-width:0.9781;stroke-miterlimit:9.7808;}
</style>
<g id="Layer_1-2" transform="matrix(0.978077, 0, 0, 0.978077, 1.77257, 0.731674)">
	<g class="st0">
		<path class="st1" d="M50.3,19.4C50.3,9.7,55.6,2,67.9,2s17.6,7.7,17.6,17.3v23.5c0,9.7-5.3,17.3-17.6,17.3s-17.6-7.7-17.6-17.3
			C50.3,42.8,50.3,19.4,50.3,19.4z M69.6,16.4c0-1.1-0.6-1.8-1.7-1.8s-1.7,0.6-1.7,1.8v29.4c0,1.1,1.7,2.9,1.7,1.8
			c0-2,0-5.6,1.7-5.4V16.4L69.6,16.4z"/>
		<path class="st1" d="M89.1,19.4C89.1,9.7,94.3,2,106.7,2s17.6,7.7,17.6,17.3v23.5c0,9.7-5.3,17.3-17.6,17.3s-17.6-7.7-17.6-17.3
			V19.4z M108.4,16.4c0-1.1-0.6-1.8-1.7-1.8s-1.7,0.6-1.7,1.8v29.4c0,1.1,0.6,1.8,1.7,1.8s1.7-0.6,1.7-1.8V16.4L108.4,16.4z"/>
		<path class="st1" d="M142.4,18.3c0,4.4-2,7.7-7.4,7.7s-7.8-3.4-7.8-7.7V17c0-9.7,6.4-14.9,17-14.9s17.2,5.6,17.2,15
			s-3.5,14.8-7.8,20.5l-6.8,8.9h8.6c3.6,0,6.3,2.1,6.3,6.3S159,59,155.4,59h-21.8c-3.6,0-4.2-6.8-6.7-6.8c-3,0,2.8-3,1.5-5L143,24.9
			c1.4-2.1,2.5-5,2.5-8.3c0-1-0.3-1.9-1.5-1.9c-1,0-1.5,0.6-1.5,1.8V18.3z"/>
	</g>
	<g>
		<g>
			<path d="M14.6,59.7c1.2,0,2.4-0.2,3.5-0.4c1.5-0.2,2.9-0.8,4.4-0.8c2.4,0,3.5,1.6,3.5,3.2c0,1.5-1,2.5-2.2,3.2
				c-2.2,1.3-6.2,1.8-9.2,1.8C4.5,66.8,0,60.3,0,51.2s4.6-15.3,13.8-15.3s12.7,6.7,12.7,13.6c0,4.3-1.4,4.8-3.3,4.8H8.9
				C8.9,57.2,10.1,59.7,14.6,59.7z M18.4,48.7c0-3.1-1.1-5.5-4.6-5.5c-2.8,0-4.6,1.5-4.9,5.5H18.4z"/>
			<path d="M29.7,46.8c0-3.4-0.8-4.7-0.8-6.4c0-2.3,1.2-4.3,4-4.3c2.4,0,3.5,1.1,4,2.6l0.3,1c2.6-2.8,6-3.9,8.2-3.9
				c7,0,11,3.6,11,11.6v14.6c0,2.5-1.9,4.4-4.4,4.4s-4.4-1.9-4.4-4.4V47.5c0-3.7-1.8-4.3-4.1-4.3c-1.5,0-3.4,0.9-4.7,2v16.9
				c0,2.5-1.9,4.4-4.4,4.4s-4.4-1.9-4.4-4.4C29.7,62.1,29.7,46.8,29.7,46.8z"/>
			<path d="M68.2,44.8c0,1.7,2.3,2.5,5.8,3.4c4.4,1.3,10.3,3.1,10.3,9.3s-6.1,9.2-12.6,9.2c-2.8,0-7.6-0.5-10.2-1.8
				c-1.4-0.7-2.4-1.6-2.4-3.2c0-1.8,1.2-3.6,3.6-3.6c1.3,0,2.8,0.5,4.3,1c1.7,0.5,3.3,0.8,4.7,0.8c2.4,0,3.7-1,3.7-2
				c0-1.4-2.2-2.3-5.8-3.2c-3.3-0.9-10.3-2.8-10.3-9.4s6.1-9.4,12.1-9.4c3.1,0,7.4,0.8,9.6,2c1.3,0.7,2.3,1.7,2.3,3.3
				s-1.1,3.4-3.3,3.4c-1.3,0-2.5-0.5-3.8-1c-1.4-0.5-2.8-0.8-4.4-0.8C69.2,42.7,68.2,43.6,68.2,44.8z"/>
			<path d="M84.6,42.4c-0.1-0.5-0.3-1.3-0.3-1.9c0-2.5,1.9-4.4,4.4-4.4c2,0,3.8,1.3,4.3,3.1l5.2,19.4h0.1l5.2-19.4
				c0.5-1.8,2.3-3.1,4.3-3.1c2.5,0,4.4,2,4.4,4.4c0,0.5-0.2,1.4-0.3,1.9l-5,17.5c-0.8,2.9-2.9,6.7-8.6,6.7s-7.7-3.8-8.6-6.7
				C89.6,59.9,84.6,42.4,84.6,42.4z"/>
			<path d="M128.8,47.2c0-2-0.6-4-4.5-4c-0.7,0-1.6,0.1-2.8,0.4c-1.3,0.3-2.9,0.8-4.1,0.8c-2.4,0-3.6-1.7-3.6-3.5
				c0-1.1,0.4-2.2,2-3.1c2.2-1.2,6.1-1.8,9.4-1.8c11.3,0,12.5,7.2,12.5,11.3v8.7c0,3.4,0.8,4.9,0.8,6.5c0,2.2-1.3,4.1-4,4.1
				c-2.5,0-3.7-1.6-4-2.6l-0.3-1.1c-2.6,2.8-5.7,3.9-8.8,3.9c-6.1,0-9.7-4.1-9.7-9.2c0-5.8,4.7-9.1,12.4-9.1h4.7L128.8,47.2
				L128.8,47.2z M128.8,54.3h-4.3c-2.6,0-4.1,0.8-4.1,2.5s1.4,2.6,3.4,2.6c1.8,0,3.5-0.8,5-2V54.3z"/>
		</g>
		<g>
			
				<linearGradient id="SVGID_1_" gradientUnits="userSpaceOnUse" x1="3.3211" y1="7.9997" x2="141.8011" y2="7.9997" gradientTransform="matrix(0.9781 0 0 -0.9781 -3.2483 59.1543)">
				<stop  offset="0" style="stop-color:#39B59C"/>
				<stop  offset="0.57" style="stop-color:#7DE073"/>
				<stop  offset="1" style="stop-color:#85DB75"/>
			</linearGradient>
			<path class="st2" d="M14.6,59.7c1.2,0,2.4-0.2,3.5-0.4c1.5-0.2,2.9-0.8,4.4-0.8c2.4,0,3.5,1.6,3.5,3.2c0,1.5-1,2.5-2.2,3.2
				c-2.2,1.3-6.2,1.8-9.2,1.8C4.5,66.8,0,60.3,0,51.2s4.6-15.3,13.8-15.3s12.7,6.7,12.7,13.6c0,4.3-1.4,4.8-3.3,4.8H8.9
				C8.9,57.2,10.1,59.7,14.6,59.7z M18.4,48.7c0-3.1-1.1-5.5-4.6-5.5c-2.8,0-4.6,1.5-4.9,5.5H18.4z"/>
			
				<linearGradient id="SVGID_00000120525184581292683560000016042364041744792468_" gradientUnits="userSpaceOnUse" x1="3.3211" y1="8.0917" x2="141.8011" y2="8.0917" gradientTransform="matrix(0.9781 0 0 -0.9781 -3.2483 59.1543)">
				<stop  offset="0" style="stop-color:#39B59C"/>
				<stop  offset="0.57" style="stop-color:#7DE073"/>
				<stop  offset="1" style="stop-color:#85DB75"/>
			</linearGradient>
			<path style="fill:url(#SVGID_00000120525184581292683560000016042364041744792468_);" d="M29.7,46.8c0-3.4-0.8-4.7-0.8-6.4
				c0-2.3,1.2-4.3,4-4.3c2.4,0,3.5,1.1,4,2.6l0.3,1c2.6-2.8,6-3.9,8.2-3.9c7,0,11,3.6,11,11.6v14.6c0,2.5-1.9,4.4-4.4,4.4
				s-4.4-1.9-4.4-4.4V47.5c0-3.7-1.8-4.3-4.1-4.3c-1.5,0-3.4,0.9-4.7,2v16.9c0,2.5-1.9,4.4-4.4,4.4s-4.4-1.9-4.4-4.4
				C29.7,62.1,29.7,46.8,29.7,46.8z"/>
			
				<linearGradient id="SVGID_00000096738847950350094090000006313571096865225915_" gradientUnits="userSpaceOnUse" x1="3.3211" y1="7.9997" x2="141.8011" y2="7.9997" gradientTransform="matrix(0.9781 0 0 -0.9781 -3.2483 59.1543)">
				<stop  offset="0" style="stop-color:#39B59C"/>
				<stop  offset="0.57" style="stop-color:#7DE073"/>
				<stop  offset="1" style="stop-color:#85DB75"/>
			</linearGradient>
			<path style="fill:url(#SVGID_00000096738847950350094090000006313571096865225915_);" d="M68.2,44.8c0,1.7,2.3,2.5,5.8,3.4
				c4.4,1.3,10.3,3.1,10.3,9.3s-6.1,9.2-12.6,9.2c-2.8,0-7.6-0.5-10.2-1.8c-1.4-0.7-2.4-1.6-2.4-3.2c0-1.8,1.2-3.6,3.6-3.6
				c1.3,0,2.8,0.5,4.3,1c1.7,0.5,3.3,0.8,4.7,0.8c2.4,0,3.7-1,3.7-2c0-1.4-2.2-2.3-5.8-3.2c-3.3-0.9-10.3-2.8-10.3-9.4
				s6.1-9.4,12.1-9.4c3.1,0,7.4,0.8,9.6,2c1.3,0.7,2.3,1.7,2.3,3.3s-1.1,3.4-3.3,3.4c-1.3,0-2.5-0.5-3.8-1c-1.4-0.5-2.8-0.8-4.4-0.8
				C69.2,42.7,68.2,43.6,68.2,44.8z"/>
			
				<linearGradient id="SVGID_00000028289772781481289830000004033109465304379814_" gradientUnits="userSpaceOnUse" x1="3.3211" y1="7.9997" x2="141.8011" y2="7.9997" gradientTransform="matrix(0.9781 0 0 -0.9781 -3.2483 59.1543)">
				<stop  offset="0" style="stop-color:#39B59C"/>
				<stop  offset="0.57" style="stop-color:#7DE073"/>
				<stop  offset="1" style="stop-color:#85DB75"/>
			</linearGradient>
			<path style="fill:url(#SVGID_00000028289772781481289830000004033109465304379814_);" d="M84.6,42.4c-0.1-0.5-0.3-1.3-0.3-1.9
				c0-2.5,1.9-4.4,4.4-4.4c2,0,3.8,1.3,4.3,3.1l5.2,19.4h0.1l5.2-19.4c0.5-1.8,2.3-3.1,4.3-3.1c2.5,0,4.4,2,4.4,4.4
				c0,0.5-0.2,1.4-0.3,1.9l-5,17.5c-0.8,2.9-2.9,6.7-8.6,6.7s-7.7-3.8-8.6-6.7C89.6,59.9,84.6,42.4,84.6,42.4z"/>
			
				<linearGradient id="SVGID_00000016042357299692687910000007700566564649515953_" gradientUnits="userSpaceOnUse" x1="3.3211" y1="7.9997" x2="141.8011" y2="7.9997" gradientTransform="matrix(0.9781 0 0 -0.9781 -3.2483 59.1543)">
				<stop  offset="0" style="stop-color:#39B59C"/>
				<stop  offset="0.57" style="stop-color:#7DE073"/>
				<stop  offset="1" style="stop-color:#85DB75"/>
			</linearGradient>
			<path style="fill:url(#SVGID_00000016042357299692687910000007700566564649515953_);" d="M128.8,47.2c0-2-0.6-4-4.5-4
				c-0.7,0-1.6,0.1-2.8,0.4c-1.3,0.3-2.9,0.8-4.1,0.8c-2.4,0-3.6-1.7-3.6-3.5c0-1.1,0.4-2.2,2-3.1c2.2-1.2,6.1-1.8,9.4-1.8
				c11.3,0,12.5,7.2,12.5,11.3v8.7c0,3.4,0.8,4.9,0.8,6.5c0,2.2-1.3,4.1-4,4.1c-2.5,0-3.7-1.6-4-2.6l-0.3-1.1
				c-2.6,2.8-5.7,3.9-8.8,3.9c-6.1,0-9.7-4.1-9.7-9.2c0-5.8,4.7-9.1,12.4-9.1h4.7L128.8,47.2L128.8,47.2z M128.8,54.3h-4.3
				c-2.6,0-4.1,0.8-4.1,2.5s1.4,2.6,3.4,2.6c1.8,0,3.5-0.8,5-2V54.3z"/>
		</g>
		<g>
			
				<linearGradient id="SVGID_00000017506761757704359040000013897936373378379953_" gradientUnits="userSpaceOnUse" x1="3.3211" y1="7.9997" x2="141.8011" y2="7.9997" gradientTransform="matrix(0.9781 0 0 -0.9781 -3.2483 59.1543)">
				<stop  offset="0" style="stop-color:#39B59C"/>
				<stop  offset="0.57" style="stop-color:#7DE073"/>
				<stop  offset="1" style="stop-color:#85DB75"/>
			</linearGradient>
			
				<path style="fill:none;stroke:url(#SVGID_00000017506761757704359040000013897936373378379953_);stroke-width:0.9781;stroke-miterlimit:9.7808;" d="
				M14.6,59.7c1.2,0,2.4-0.2,3.5-0.4c1.5-0.2,2.9-0.8,4.4-0.8c2.4,0,3.5,1.6,3.5,3.2c0,1.5-1,2.5-2.2,3.2c-2.2,1.3-6.2,1.8-9.2,1.8
				C4.5,66.8,0,60.3,0,51.2s4.6-15.3,13.8-15.3s12.7,6.7,12.7,13.6c0,4.3-1.4,4.8-3.3,4.8H8.9C8.9,57.2,10.1,59.7,14.6,59.7z
				 M18.4,48.7c0-3.1-1.1-5.5-4.6-5.5c-2.8,0-4.6,1.5-4.9,5.5H18.4z"/>
			
				<linearGradient id="SVGID_00000146459834958285604400000014079545672016859283_" gradientUnits="userSpaceOnUse" x1="3.3211" y1="8.0917" x2="141.8011" y2="8.0917" gradientTransform="matrix(0.9781 0 0 -0.9781 -3.2483 59.1543)">
				<stop  offset="0" style="stop-color:#39B59C"/>
				<stop  offset="0.57" style="stop-color:#7DE073"/>
				<stop  offset="1" style="stop-color:#85DB75"/>
			</linearGradient>
			
				<path style="fill:none;stroke:url(#SVGID_00000146459834958285604400000014079545672016859283_);stroke-width:0.9781;stroke-miterlimit:9.7808;" d="
				M29.7,46.8c0-3.4-0.8-4.7-0.8-6.4c0-2.3,1.2-4.3,4-4.3c2.4,0,3.5,1.1,4,2.6l0.3,1c2.6-2.8,6-3.9,8.2-3.9c7,0,11,3.6,11,11.6v14.6
				c0,2.5-1.9,4.4-4.4,4.4s-4.4-1.9-4.4-4.4V47.5c0-3.7-1.8-4.3-4.1-4.3c-1.5,0-3.4,0.9-4.7,2v16.9c0,2.5-1.9,4.4-4.4,4.4
				s-4.4-1.9-4.4-4.4C29.7,62.1,29.7,46.8,29.7,46.8z"/>
			
				<linearGradient id="SVGID_00000093860001289358160970000016890633151863304067_" gradientUnits="userSpaceOnUse" x1="3.3211" y1="7.9997" x2="141.8011" y2="7.9997" gradientTransform="matrix(0.9781 0 0 -0.9781 -3.2483 59.1543)">
				<stop  offset="0" style="stop-color:#39B59C"/>
				<stop  offset="0.57" style="stop-color:#7DE073"/>
				<stop  offset="1" style="stop-color:#85DB75"/>
			</linearGradient>
			
				<path style="fill:none;stroke:url(#SVGID_00000093860001289358160970000016890633151863304067_);stroke-width:0.9781;stroke-miterlimit:9.7808;" d="
				M68.2,44.8c0,1.7,2.3,2.5,5.8,3.4c4.4,1.3,10.3,3.1,10.3,9.3s-6.1,9.2-12.6,9.2c-2.8,0-7.6-0.5-10.2-1.8
				c-1.4-0.7-2.4-1.6-2.4-3.2c0-1.8,1.2-3.6,3.6-3.6c1.3,0,2.8,0.5,4.3,1c1.7,0.5,3.3,0.8,4.7,0.8c2.4,0,3.7-1,3.7-2
				c0-1.4-2.2-2.3-5.8-3.2c-3.3-0.9-10.3-2.8-10.3-9.4s6.1-9.4,12.1-9.4c3.1,0,7.4,0.8,9.6,2c1.3,0.7,2.3,1.7,2.3,3.3
				s-1.1,3.4-3.3,3.4c-1.3,0-2.5-0.5-3.8-1c-1.4-0.5-2.8-0.8-4.4-0.8C69.2,42.7,68.2,43.6,68.2,44.8z"/>
			
				<linearGradient id="SVGID_00000031909076526105315290000006579424398532321694_" gradientUnits="userSpaceOnUse" x1="3.3211" y1="7.9997" x2="141.8011" y2="7.9997" gradientTransform="matrix(0.9781 0 0 -0.9781 -3.2483 59.1543)">
				<stop  offset="0" style="stop-color:#39B59C"/>
				<stop  offset="0.57" style="stop-color:#7DE073"/>
				<stop  offset="1" style="stop-color:#85DB75"/>
			</linearGradient>
			
				<path style="fill:none;stroke:url(#SVGID_00000031909076526105315290000006579424398532321694_);stroke-width:0.9781;stroke-miterlimit:9.7808;" d="
				M84.6,42.4c-0.1-0.5-0.3-1.3-0.3-1.9c0-2.5,1.9-4.4,4.4-4.4c2,0,3.8,1.3,4.3,3.1l5.2,19.4h0.1l5.2-19.4c0.5-1.8,2.3-3.1,4.3-3.1
				c2.5,0,4.4,2,4.4,4.4c0,0.5-0.2,1.4-0.3,1.9l-5,17.5c-0.8,2.9-2.9,6.7-8.6,6.7s-7.7-3.8-8.6-6.7C89.6,59.9,84.6,42.4,84.6,42.4z"
				/>
			
				<linearGradient id="SVGID_00000173861768545882646390000001811175737576317319_" gradientUnits="userSpaceOnUse" x1="3.3211" y1="7.9997" x2="141.8011" y2="7.9997" gradientTransform="matrix(0.9781 0 0 -0.9781 -3.2483 59.1543)">
				<stop  offset="0" style="stop-color:#39B59C"/>
				<stop  offset="0.57" style="stop-color:#7DE073"/>
				<stop  offset="1" style="stop-color:#85DB75"/>
			</linearGradient>
			
				<path style="fill:none;stroke:url(#SVGID_00000173861768545882646390000001811175737576317319_);stroke-width:0.9781;stroke-miterlimit:9.7808;" d="
				M128.8,47.2c0-2-0.6-4-4.5-4c-0.7,0-1.6,0.1-2.8,0.4c-1.3,0.3-2.9,0.8-4.1,0.8c-2.4,0-3.6-1.7-3.6-3.5c0-1.1,0.4-2.2,2-3.1
				c2.2-1.2,6.1-1.8,9.4-1.8c11.3,0,12.5,7.2,12.5,11.3v8.7c0,3.4,0.8,4.9,0.8,6.5c0,2.2-1.3,4.1-4,4.1c-2.5,0-3.7-1.6-4-2.6
				l-0.3-1.1c-2.6,2.8-5.7,3.9-8.8,3.9c-6.1,0-9.7-4.1-9.7-9.2c0-5.8,4.7-9.1,12.4-9.1h4.7L128.8,47.2L128.8,47.2z M128.8,54.3h-4.3
				c-2.6,0-4.1,0.8-4.1,2.5s1.4,2.6,3.4,2.6c1.8,0,3.5-0.8,5-2V54.3z"/>
		</g>
	</g>
</g>
</svg>
