<?xml version="1.0" encoding="utf-8"?>
<svg id="Layer_2" data-name="Layer 2" viewBox="0 0 161.7 66.75" xmlns="http://www.w3.org/2000/svg">
  <defs>
    <style>
      .cls-1 {
        fill: url(#New_Gradient_Swatch_1);
      }

      .cls-1, .cls-2, .cls-3 {
        stroke-width: 0px;
      }

      .cls-4 {
        fill: none;
        stroke: url(#linear-gradient);
        stroke-miterlimit: 10;
      }

      .cls-3 {
        fill: #d0dddd;
      }
    </style>
    <linearGradient id="New_Gradient_Swatch_1" data-name="New Gradient Swatch 1" x1="0" y1="51.33" x2="138.48" y2="51.33" gradientUnits="userSpaceOnUse">
      <stop offset="0" stop-color="#39b59c"/>
      <stop offset="0.57" stop-color="#7de073"/>
      <stop offset="1" stop-color="#85db75"/>
    </linearGradient>
    <linearGradient id="linear-gradient" x1="0" y1="51.33" x2="138.48" y2="51.33" gradientUnits="userSpaceOnUse">
      <stop offset="0" stop-color="#39b59c"/>
      <stop offset="0.57" stop-color="#7de073"/>
      <stop offset="1" stop-color="#85db75"/>
    </linearGradient>
  </defs>
  <g id="Layer_1-2" data-name="Layer 1" style="" transform="matrix(0.978077, 0, 0, 0.978077, 1.77257, 0.731674)">
    <g>
      <path class="cls-3" d="m50.3,17.32c0-9.66,5.27-17.32,17.64-17.32s17.64,7.66,17.64,17.32v23.46c0,9.66-5.27,17.32-17.64,17.32s-17.64-7.66-17.64-17.32v-23.46Zm19.31-2.95c0-1.12-.56-1.76-1.68-1.76s-1.68.64-1.68,1.76v29.37c0,1.12.56,1.76,1.68,1.76s1.68-.64,1.68-1.76V14.36Z"/>
      <path class="cls-3" d="m89.08,17.32c0-9.66,5.27-17.32,17.64-17.32s17.64,7.66,17.64,17.32v23.46c0,9.66-5.27,17.32-17.64,17.32s-17.64-7.66-17.64-17.32v-23.46Zm19.31-2.95c0-1.12-.56-1.76-1.68-1.76s-1.68.64-1.68,1.76v29.37c0,1.12.56,1.76,1.68,1.76s1.68-.64,1.68-1.76V14.36Z"/>
      <path class="cls-3" d="m142.39,16.28c0,4.39-2,7.74-7.42,7.74s-7.82-3.35-7.82-7.74v-1.36c0-9.74,6.38-14.92,17-14.92s17.24,5.59,17.24,15-3.51,14.84-7.82,20.51l-6.78,8.86h8.62c3.59,0,6.3,2.07,6.3,6.3s-2.71,6.3-6.3,6.3h-21.79c-3.59,0-6.7-2.63-6.7-6.78,0-2,.64-3.51,1.52-4.95l14.52-22.42c1.44-2.15,2.47-5.03,2.47-8.3,0-1.04-.32-1.92-1.52-1.92-1.04,0-1.52.64-1.52,1.76v1.92Z"/>
    </g>
    <g>
      <g>
        <path class="cls-2" d="m14.58,59.67c1.2,0,2.4-.18,3.48-.36,1.5-.24,2.94-.78,4.38-.78,2.4,0,3.48,1.56,3.48,3.18,0,1.5-.96,2.52-2.22,3.24-2.22,1.26-6.24,1.8-9.18,1.8-10.02,0-14.52-6.42-14.52-15.54s4.62-15.3,13.8-15.3,12.72,6.66,12.72,13.62c0,4.26-1.38,4.8-3.3,4.8h-14.28c0,2.88,1.14,5.34,5.64,5.34Zm3.84-10.98c0-3.12-1.14-5.52-4.62-5.52-2.82,0-4.56,1.5-4.86,5.52h9.48Z"/>
        <path class="cls-2" d="m29.7,46.77c0-3.36-.78-4.74-.78-6.36,0-2.28,1.2-4.26,3.96-4.26,2.4,0,3.54,1.08,4.02,2.64l.3,1.02c2.64-2.82,6-3.9,8.16-3.9,7.02,0,10.98,3.6,10.98,11.58v14.64c0,2.52-1.92,4.44-4.44,4.44s-4.44-1.92-4.44-4.44v-14.64c0-3.72-1.8-4.32-4.14-4.32-1.5,0-3.42.9-4.74,2.04v16.92c0,2.52-1.92,4.44-4.44,4.44s-4.44-1.92-4.44-4.44v-15.36Z"/>
        <path class="cls-2" d="m68.22,44.79c0,1.74,2.34,2.46,5.76,3.42,4.38,1.26,10.32,3.12,10.32,9.3s-6.12,9.24-12.6,9.24c-2.76,0-7.62-.54-10.2-1.8-1.38-.66-2.4-1.62-2.4-3.24,0-1.8,1.2-3.6,3.6-3.6,1.32,0,2.82.54,4.32.96,1.68.48,3.3.84,4.74.84,2.4,0,3.66-.96,3.66-2.04,0-1.44-2.16-2.28-5.76-3.24-3.3-.9-10.32-2.82-10.32-9.36s6.12-9.36,12.06-9.36c3.12,0,7.44.84,9.6,1.98,1.26.66,2.34,1.68,2.34,3.3s-1.08,3.36-3.3,3.36c-1.26,0-2.52-.54-3.84-.96-1.44-.48-2.76-.84-4.38-.84-2.58,0-3.6.9-3.6,2.04Z"/>
        <path class="cls-2" d="m84.6,42.39c-.12-.48-.3-1.32-.3-1.86,0-2.46,1.92-4.44,4.38-4.44,1.98,0,3.78,1.32,4.26,3.12l5.22,19.44h.12l5.22-19.44c.48-1.8,2.28-3.12,4.26-3.12,2.46,0,4.38,1.98,4.38,4.44,0,.54-.18,1.38-.3,1.86l-4.98,17.52c-.84,2.88-2.94,6.66-8.64,6.66s-7.74-3.78-8.58-6.66l-5.04-17.52Z"/>
        <path class="cls-2" d="m128.82,47.19c0-1.98-.6-4.02-4.5-4.02-.66,0-1.62.06-2.82.36-1.26.3-2.88.78-4.08.78-2.4,0-3.6-1.74-3.6-3.54,0-1.08.42-2.16,2.04-3.06,2.16-1.2,6.12-1.8,9.36-1.8,11.34,0,12.48,7.2,12.48,11.34v8.7c0,3.36.78,4.92.78,6.54,0,2.16-1.32,4.08-4.02,4.08-2.46,0-3.66-1.56-3.96-2.64l-.3-1.08c-2.64,2.82-5.7,3.9-8.76,3.9-6.06,0-9.66-4.14-9.66-9.24,0-5.82,4.68-9.12,12.36-9.12h4.68v-1.2Zm0,7.14h-4.32c-2.64,0-4.08.84-4.08,2.52s1.38,2.64,3.42,2.64c1.8,0,3.48-.78,4.98-2.04v-3.12Z"/>
      </g>
      <g>
        <path class="cls-1" d="m14.58,59.67c1.2,0,2.4-.18,3.48-.36,1.5-.24,2.94-.78,4.38-.78,2.4,0,3.48,1.56,3.48,3.18,0,1.5-.96,2.52-2.22,3.24-2.22,1.26-6.24,1.8-9.18,1.8-10.02,0-14.52-6.42-14.52-15.54s4.62-15.3,13.8-15.3,12.72,6.66,12.72,13.62c0,4.26-1.38,4.8-3.3,4.8h-14.28c0,2.88,1.14,5.34,5.64,5.34Zm3.84-10.98c0-3.12-1.14-5.52-4.62-5.52-2.82,0-4.56,1.5-4.86,5.52h9.48Z"/>
        <path class="cls-1" d="m29.7,46.77c0-3.36-.78-4.74-.78-6.36,0-2.28,1.2-4.26,3.96-4.26,2.4,0,3.54,1.08,4.02,2.64l.3,1.02c2.64-2.82,6-3.9,8.16-3.9,7.02,0,10.98,3.6,10.98,11.58v14.64c0,2.52-1.92,4.44-4.44,4.44s-4.44-1.92-4.44-4.44v-14.64c0-3.72-1.8-4.32-4.14-4.32-1.5,0-3.42.9-4.74,2.04v16.92c0,2.52-1.92,4.44-4.44,4.44s-4.44-1.92-4.44-4.44v-15.36Z"/>
        <path class="cls-1" d="m68.22,44.79c0,1.74,2.34,2.46,5.76,3.42,4.38,1.26,10.32,3.12,10.32,9.3s-6.12,9.24-12.6,9.24c-2.76,0-7.62-.54-10.2-1.8-1.38-.66-2.4-1.62-2.4-3.24,0-1.8,1.2-3.6,3.6-3.6,1.32,0,2.82.54,4.32.96,1.68.48,3.3.84,4.74.84,2.4,0,3.66-.96,3.66-2.04,0-1.44-2.16-2.28-5.76-3.24-3.3-.9-10.32-2.82-10.32-9.36s6.12-9.36,12.06-9.36c3.12,0,7.44.84,9.6,1.98,1.26.66,2.34,1.68,2.34,3.3s-1.08,3.36-3.3,3.36c-1.26,0-2.52-.54-3.84-.96-1.44-.48-2.76-.84-4.38-.84-2.58,0-3.6.9-3.6,2.04Z"/>
        <path class="cls-1" d="m84.6,42.39c-.12-.48-.3-1.32-.3-1.86,0-2.46,1.92-4.44,4.38-4.44,1.98,0,3.78,1.32,4.26,3.12l5.22,19.44h.12l5.22-19.44c.48-1.8,2.28-3.12,4.26-3.12,2.46,0,4.38,1.98,4.38,4.44,0,.54-.18,1.38-.3,1.86l-4.98,17.52c-.84,2.88-2.94,6.66-8.64,6.66s-7.74-3.78-8.58-6.66l-5.04-17.52Z"/>
        <path class="cls-1" d="m128.82,47.19c0-1.98-.6-4.02-4.5-4.02-.66,0-1.62.06-2.82.36-1.26.3-2.88.78-4.08.78-2.4,0-3.6-1.74-3.6-3.54,0-1.08.42-2.16,2.04-3.06,2.16-1.2,6.12-1.8,9.36-1.8,11.34,0,12.48,7.2,12.48,11.34v8.7c0,3.36.78,4.92.78,6.54,0,2.16-1.32,4.08-4.02,4.08-2.46,0-3.66-1.56-3.96-2.64l-.3-1.08c-2.64,2.82-5.7,3.9-8.76,3.9-6.06,0-9.66-4.14-9.66-9.24,0-5.82,4.68-9.12,12.36-9.12h4.68v-1.2Zm0,7.14h-4.32c-2.64,0-4.08.84-4.08,2.52s1.38,2.64,3.42,2.64c1.8,0,3.48-.78,4.98-2.04v-3.12Z"/>
      </g>
      <g>
        <path class="cls-4" d="m14.58,59.67c1.2,0,2.4-.18,3.48-.36,1.5-.24,2.94-.78,4.38-.78,2.4,0,3.48,1.56,3.48,3.18,0,1.5-.96,2.52-2.22,3.24-2.22,1.26-6.24,1.8-9.18,1.8-10.02,0-14.52-6.42-14.52-15.54s4.62-15.3,13.8-15.3,12.72,6.66,12.72,13.62c0,4.26-1.38,4.8-3.3,4.8h-14.28c0,2.88,1.14,5.34,5.64,5.34Zm3.84-10.98c0-3.12-1.14-5.52-4.62-5.52-2.82,0-4.56,1.5-4.86,5.52h9.48Z"/>
        <path class="cls-4" d="m29.7,46.77c0-3.36-.78-4.74-.78-6.36,0-2.28,1.2-4.26,3.96-4.26,2.4,0,3.54,1.08,4.02,2.64l.3,1.02c2.64-2.82,6-3.9,8.16-3.9,7.02,0,10.98,3.6,10.98,11.58v14.64c0,2.52-1.92,4.44-4.44,4.44s-4.44-1.92-4.44-4.44v-14.64c0-3.72-1.8-4.32-4.14-4.32-1.5,0-3.42.9-4.74,2.04v16.92c0,2.52-1.92,4.44-4.44,4.44s-4.44-1.92-4.44-4.44v-15.36Z"/>
        <path class="cls-4" d="m68.22,44.79c0,1.74,2.34,2.46,5.76,3.42,4.38,1.26,10.32,3.12,10.32,9.3s-6.12,9.24-12.6,9.24c-2.76,0-7.62-.54-10.2-1.8-1.38-.66-2.4-1.62-2.4-3.24,0-1.8,1.2-3.6,3.6-3.6,1.32,0,2.82.54,4.32.96,1.68.48,3.3.84,4.74.84,2.4,0,3.66-.96,3.66-2.04,0-1.44-2.16-2.28-5.76-3.24-3.3-.9-10.32-2.82-10.32-9.36s6.12-9.36,12.06-9.36c3.12,0,7.44.84,9.6,1.98,1.26.66,2.34,1.68,2.34,3.3s-1.08,3.36-3.3,3.36c-1.26,0-2.52-.54-3.84-.96-1.44-.48-2.76-.84-4.38-.84-2.58,0-3.6.9-3.6,2.04Z"/>
        <path class="cls-4" d="m84.6,42.39c-.12-.48-.3-1.32-.3-1.86,0-2.46,1.92-4.44,4.38-4.44,1.98,0,3.78,1.32,4.26,3.12l5.22,19.44h.12l5.22-19.44c.48-1.8,2.28-3.12,4.26-3.12,2.46,0,4.38,1.98,4.38,4.44,0,.54-.18,1.38-.3,1.86l-4.98,17.52c-.84,2.88-2.94,6.66-8.64,6.66s-7.74-3.78-8.58-6.66l-5.04-17.52Z"/>
        <path class="cls-4" d="m128.82,47.19c0-1.98-.6-4.02-4.5-4.02-.66,0-1.62.06-2.82.36-1.26.3-2.88.78-4.08.78-2.4,0-3.6-1.74-3.6-3.54,0-1.08.42-2.16,2.04-3.06,2.16-1.2,6.12-1.8,9.36-1.8,11.34,0,12.48,7.2,12.48,11.34v8.7c0,3.36.78,4.92.78,6.54,0,2.16-1.32,4.08-4.02,4.08-2.46,0-3.66-1.56-3.96-2.64l-.3-1.08c-2.64,2.82-5.7,3.9-8.76,3.9-6.06,0-9.66-4.14-9.66-9.24,0-5.82,4.68-9.12,12.36-9.12h4.68v-1.2Zm0,7.14h-4.32c-2.64,0-4.08.84-4.08,2.52s1.38,2.64,3.42,2.64c1.8,0,3.48-.78,4.98-2.04v-3.12Z"/>
      </g>
    </g>
  </g>
</svg>