<?xml version="1.0" encoding="UTF-8"?>
<svg id="Layer_1" data-name="Layer 1" xmlns="http://www.w3.org/2000/svg" viewBox="0 0 600 600">
  <defs>
    <style>
      .cls-1 {
        fill: brown;
      }

      .cls-1, .cls-2, .cls-3 {
        stroke-width: 0px;
      }

      .cls-2 {
        fill: beige;
      }

      .cls-3 {
        fill: wheat;
      }
    </style>
  </defs>
  <circle class="cls-3" cx="299.92" cy="299.69" r="294.35"/>
  <g>
    <rect class="cls-2" x="276.72" y="12.25" width="46.41" height="82.95" rx="6.48" ry="6.48"/>
    <rect class="cls-2" x="222.19" y="18.31" width="46.43" height="82.95" rx="6.53" ry="6.53" transform="translate(-7.14 55.64) rotate(-12.75)"/>
    <rect class="cls-2" x="171.93" y="35.61" width="46.44" height="82.95" rx="6.57" ry="6.57" transform="translate(-14.24 90.59) rotate(-25.24)"/>
    <rect class="cls-2" x="127.26" y="62.83" width="46.46" height="82.95" rx="6.61" ry="6.61" transform="translate(-32.41 113.01) rotate(-37.45)"/>
    <rect class="cls-2" x="89.51" y="98.63" width="46.47" height="82.95" rx="6.65" ry="6.65" transform="translate(-67.01 134.91) rotate(-49.52)"/>
    <rect class="cls-2" x="60.02" y="141.68" width="46.49" height="82.95" rx="6.69" ry="6.69" transform="translate(-117.47 169.54) rotate(-61.67)"/>
    <rect class="cls-2" x="40.1" y="190.66" width="46.5" height="82.95" rx="6.74" ry="6.74" transform="translate(-177.26 229.42) rotate(-74.09)"/>
    <rect class="cls-2" x="31.09" y="244.23" width="46.52" height="82.95" rx="6.78" ry="6.78" transform="translate(-233.95 323.97) rotate(-86.79)"/>
    <rect class="cls-2" x="15.92" y="317.63" width="82.95" height="46.53" rx="6.82" ry="6.82" transform="translate(-55.9 14.29) rotate(-9.57)"/>
    <rect class="cls-2" x="30.53" y="369.07" width="82.95" height="46.54" rx="6.86" ry="6.86" transform="translate(-142.57 56.08) rotate(-22.14)"/>
    <rect class="cls-2" x="55.38" y="415.25" width="82.95" height="46.56" rx="6.9" ry="6.9" transform="translate(-230.89 131.49) rotate(-34.41)"/>
    <rect class="cls-2" x="89.15" y="454.85" width="82.95" height="46.57" rx="6.94" ry="6.94" transform="translate(-306.1 243.74) rotate(-46.5)"/>
    <rect class="cls-2" x="130.51" y="486.52" width="82.95" height="46.59" rx="6.99" ry="6.99" transform="translate(-352.79 391.09) rotate(-58.61)"/>
    <rect class="cls-2" x="178.13" y="508.95" width="82.95" height="46.6" rx="7.03" ry="7.03" transform="translate(-355.17 566.11) rotate(-70.95)"/>
    <rect class="cls-2" x="230.68" y="520.8" width="82.95" height="46.62" rx="7.07" ry="7.07" transform="translate(-298.94 753.81) rotate(-83.59)"/>
    <rect class="cls-2" x="304.26" y="502.65" width="46.63" height="82.95" rx="7.11" ry="7.11" transform="translate(-58.46 39.79) rotate(-6.38)"/>
    <rect class="cls-2" x="356.81" y="490.81" width="46.65" height="82.95" rx="7.15" ry="7.15" transform="translate(-152.74 152.97) rotate(-19.02)"/>
    <rect class="cls-2" x="404.43" y="468.4" width="46.66" height="82.95" rx="7.2" ry="7.2" transform="translate(-202.87 297.13) rotate(-31.36)"/>
    <rect class="cls-2" x="445.79" y="436.73" width="46.68" height="82.95" rx="7.24" ry="7.24" transform="translate(-200.33 453.98) rotate(-43.48)"/>
    <rect class="cls-2" x="479.58" y="397.15" width="46.69" height="82.95" rx="7.28" ry="7.28" transform="translate(-143.24 605.34) rotate(-55.56)"/>
    <rect class="cls-2" x="504.45" y="350.98" width="46.71" height="82.95" rx="7.32" ry="7.32" transform="translate(-34.81 733.14) rotate(-67.83)"/>
    <rect class="cls-2" x="519.07" y="299.54" width="46.72" height="82.95" rx="7.36" ry="7.36" transform="translate(115.72 818.97) rotate(-80.4)"/>
    <rect class="cls-2" x="504.03" y="262.45" width="82.95" height="46.74" rx="7.41" ry="7.41" transform="translate(-15 30.67) rotate(-3.18)"/>
    <rect class="cls-2" x="495.06" y="208.85" width="82.95" height="46.75" rx="7.45" ry="7.45" transform="translate(-43.05 155.53) rotate(-15.87)"/>
    <rect class="cls-2" x="475.19" y="159.84" width="82.95" height="46.77" rx="7.49" ry="7.49" transform="translate(-25.14 266.63) rotate(-28.28)"/>
    <rect class="cls-2" x="445.73" y="116.76" width="82.95" height="46.78" rx="7.53" ry="7.53" transform="translate(25.47 349.47) rotate(-40.43)"/>
    <rect class="cls-2" x="408.03" y="80.94" width="82.95" height="46.79" rx="7.57" ry="7.57" transform="translate(93.17 397.53) rotate(-52.52)"/>
    <rect class="cls-2" x="363.39" y="53.7" width="82.95" height="46.81" rx="7.61" ry="7.61" transform="translate(162.34 410.34) rotate(-64.74)"/>
    <rect class="cls-2" x="313.15" y="36.38" width="82.95" height="46.82" rx="7.66" ry="7.66" transform="translate(217.99 392.45) rotate(-77.24)"/>
    <rect class="cls-2" x="276.68" y="12.25" width="46.84" height="82.95" rx="7.7" ry="7.7"/>
  </g>
  <g>
    <path class="cls-1" d="m316.35,76.62h-5.06s-4.61-14.51-4.61-14.51l-13.61.02-4.62,14.53h-5s13.49-41.5,13.49-41.5h5.79s13.62,41.46,13.62,41.46Zm-11.06-18.71l-5.47-17.17-5.38,17.18h10.85Z"/>
    <path class="cls-1" d="m357.47,60.65c2.56,1.22,4.4,2.91,5.54,5.07,1.13,2.15,1.42,4.49.87,6.99-.81,3.68-2.79,6.31-5.94,7.91-3.15,1.6-6.6,1.98-10.35,1.16l-11.52-2.53,8.9-40.52,11.23,2.47c3.91.86,6.77,2.39,8.6,4.58,1.83,2.2,2.39,4.86,1.71,7.98-.42,1.91-1.43,3.48-3.03,4.69-1.6,1.21-3.6,1.91-5.98,2.09l-.02.12Zm-15.79,15.53l5.34,1.17c3.12.69,5.75.52,7.89-.49,2.14-1.02,3.48-2.76,4.02-5.23.58-2.62.12-4.85-1.36-6.68-1.48-1.83-3.93-3.12-7.34-3.87l-5-1.1-3.56,16.2Zm4.46-20.3l5.51,1.21c5.76,1.27,9.1-.16,10-4.27.41-1.88.02-3.47-1.18-4.79-1.19-1.32-3.16-2.27-5.9-2.88l-5.8-1.28-2.64,12Z"/>
    <path class="cls-1" d="m406.62,100.45c-3.9.68-7.8.12-11.69-1.68-4.87-2.25-7.81-5.64-8.8-10.16-.99-4.52-.02-9.94,2.91-16.28,2.83-6.12,6.27-10.34,10.33-12.67s8.6-2.33,13.63,0c1.81.84,3.51,1.9,5.07,3.19,1.56,1.29,2.71,2.56,3.45,3.83l-3.03,2.78c-1.85-2.59-4.27-4.57-7.26-5.95-3.47-1.6-6.63-1.54-9.49.2-2.85,1.74-5.54,5.33-8.06,10.77-4.84,10.46-3.83,17.28,3.02,20.44,2.9,1.34,6.28,1.83,10.15,1.45l-.23,4.07Z"/>
    <path class="cls-1" d="m450.21,81.71l6.51,4.94c4.33,3.28,6.68,7.38,7.06,12.3.38,4.92-1.38,9.95-5.27,15.09-3.98,5.25-8.38,8.31-13.22,9.19s-9.32-.26-13.46-3.39l-6.68-5.06,25.06-33.07Zm-18.68,32.63l2.72,2.06c3.14,2.38,6.51,3.1,10.1,2.16,3.59-.94,6.95-3.48,10.08-7.6,3.1-4.09,4.62-8.01,4.57-11.76-.05-3.74-1.64-6.8-4.77-9.17l-2.72-2.06-19.98,26.36Z"/>
    <path class="cls-1" d="m476.92,163.5l-14.07-16.48,31.55-26.94,13.96,16.34-3.2,2.73-10.82-12.68-9.77,8.34,10.4,12.19-3.2,2.73-10.41-12.19-12.19,10.4,10.94,12.81-3.2,2.73Z"/>
    <path class="cls-1" d="m535.12,187.46l-8.07-15.16-11.97,6.37,7.35,13.81-3.71,1.98-7.35-13.81-17.24,9.17-2.27-4.26,36.62-19.49,10.33,19.41-3.71,1.98Z"/>
    <path class="cls-1" d="m521.11,251.66c-3.31-2.6-5.51-5.88-6.62-9.84-1.45-5.2-.78-9.62,1.99-13.28,2.78-3.66,7.55-6.44,14.33-8.33,6.55-1.83,12.01-1.94,16.38-.37,4.37,1.58,7.3,5.06,8.79,10.42.54,1.93.82,3.9.86,5.93.03,2.02-.19,3.73-.69,5.11l-4.08-.51c.77-3.08.71-6.21-.17-9.38-1.02-3.66-3.12-6.02-6.31-7.08-3.18-1.06-7.65-.78-13.41.83-11.1,3.09-15.64,8.27-13.62,15.55.76,2.74,1.91,4.64,3.46,5.72l9.86-2.75-2-7.19,4.02-1.12,3.3,11.84-16.09,4.48Z"/>
    <path class="cls-1" d="m523.29,298.97l-.28-4.81,20.55-1.19-.82-14.18-20.55,1.19-.28-4.81,41.42-2.4.28,4.82-16.64.96.82,14.18,16.64-.96.28,4.81-41.42,2.4Z"/>
    <path class="cls-1" d="m518.69,344.28l3-18.61,4.15.67-1.14,7.05,32.66,5.26,1.14-7.05,4.15.67-3,18.61-4.15-.67,1.1-6.79-32.66-5.26-1.09,6.79-4.15-.67Z"/>
    <path class="cls-1" d="m514.9,392.55c-3.53-1.4-5.88-3.4-7.05-6-1.16-2.6-1.04-5.69.38-9.26,1.23-3.12,3.01-5.69,5.33-7.72l3.05,2.76c-1.93,1.74-3.42,3.92-4.45,6.52-.89,2.26-.94,4.13-.15,5.62.79,1.49,2.46,2.73,4.99,3.73l27.99,11.09-1.78,4.48-28.32-11.22Z"/>
    <path class="cls-1" d="m475.21,438.65l3.4-5.05,24.71-.27-1.5-6.3-12.93-8.7,2.69-4,34.42,23.17-2.69,4-16.49-11.1,6.21,26.37-3.1,4.61-5.49-23.23-29.22.49Z"/>
    <path class="cls-1" d="m445.16,469.39l16.33-15.6,28.66,30-3.49,3.33-25.76-26.95-12.84,12.27-2.91-3.04Z"/>
    <path class="cls-1" d="m404.22,497.33l3.97-2.41,18.47,30.41-3.48-17.8,3.9-2.37,14.19,11.3-18.47-30.41,3.97-2.41,21.53,35.46-5.35,3.25-15.74-12.56,3.91,19.74-5.35,3.25-21.53-35.46Z"/>
    <path class="cls-1" d="m360.19,514.78l5.07-1.72,24.64,26.22-10.55-31.01,4.57-1.56,13.37,39.28-5.09,1.73-24.6-25.92,10.46,30.73-4.48,1.52-13.37-39.28Z"/>
    <path class="cls-1" d="m329.85,563.3c-4.62.53-8.34-.9-11.19-4.27-2.84-3.38-4.66-8.55-5.45-15.52-.79-6.93-.19-12.37,1.81-16.31,2-3.94,5.31-6.17,9.95-6.7,4.6-.53,8.31.9,11.16,4.28,2.84,3.38,4.66,8.54,5.45,15.49.79,6.95.19,12.4-1.81,16.33s-5.3,6.17-9.92,6.7Zm-4.4-38.59c-6.08.69-8.46,6.76-7.16,18.22,1.31,11.47,5,16.86,11.08,16.17,2.96-.34,5.05-2.08,6.25-5.23,1.21-3.15,1.5-7.48.87-13.02-.64-5.59-1.89-9.76-3.76-12.52-1.87-2.76-4.3-3.96-7.28-3.62Z"/>
    <path class="cls-1" d="m283.05,563.91l-10.47-1.08c-3.96-.41-7.02-1.73-9.2-3.97-2.17-2.23-3.08-5.1-2.72-8.59.36-3.51,1.84-6.19,4.42-8.04,2.59-1.85,5.8-2.58,9.64-2.18l5.88.61,1.92-18.51,4.8.49-4.27,41.27Zm-2.87-19.07l-5.21-.54c-5.64-.59-8.7,1.48-9.18,6.2-.23,2.18.36,4.03,1.75,5.53s3.3,2.38,5.71,2.63l5.44.56,1.49-14.39Z"/>
    <path class="cls-1" d="m217.42,500.11c1.79.04,3.47.32,5.05.84,4.09,1.36,6,4.47,5.73,9.34.77.11,1.41.25,1.91.41,4.39,1.46,7.16,4.32,8.32,8.58s.63,9.71-1.57,16.35c-2.21,6.64-5.04,11.33-8.51,14.06-3.47,2.73-7.41,3.36-11.82,1.9-4.41-1.46-7.19-4.32-8.35-8.58-1.16-4.26-.63-9.72,1.58-16.38,3.21-9.67,7.72-15.16,13.52-16.45.21-2.94-.64-4.74-2.58-5.38-1.08-.36-2.31-.61-3.68-.76l.41-3.92Zm11.35,14.61c-5.8-1.93-10.52,2.58-14.16,13.52-3.64,10.96-2.56,17.4,3.25,19.33,2.83.94,5.45.24,7.87-2.11,2.42-2.34,4.51-6.16,6.26-11.44,1.77-5.34,2.39-9.65,1.85-12.94-.54-3.29-2.23-5.41-5.08-6.35Z"/>
    <path class="cls-1" d="m171.85,482.99l5.18,3.08.83,22.42,4.6,2.74,9.64-16.2,4.14,2.46-21.21,35.66-10.08-6c-3.39-2.02-5.57-4.43-6.56-7.24-.98-2.81-.61-5.68,1.14-8.61,1.29-2.17,3.16-3.68,5.6-4.52,2.44-.84,5.09-.82,7.96.07l-1.23-23.86Zm8.46,31.86l-5.23-3.11c-2.19-1.3-4.32-1.77-6.39-1.39-2.07.38-3.64,1.46-4.71,3.27-2.37,3.97-1.12,7.41,3.73,10.29l5.33,3.17,7.28-12.23Z"/>
    <path class="cls-1" d="m115.82,483.39c1.23,2.3,2.65,4.21,4.27,5.72,1.83,1.71,3.72,2.69,5.65,2.93,1.94.24,3.63-.41,5.07-1.96,1.71-1.84,1.71-4.86-.01-9.07-1.27-3.12-2.08-5.22-2.43-6.3-.35-1.08-.57-2.31-.65-3.71-.09-1.4.09-2.78.53-4.16.44-1.37,1.21-2.65,2.33-3.84,2.76-2.95,5.89-4.31,9.39-4.08,3.5.23,6.6,1.6,9.29,4.12,2.61,2.44,4.41,5.09,5.41,7.95l-3.56,2.34c-1.33-3.2-2.85-5.6-4.57-7.21-2-1.88-4.1-2.86-6.28-2.95-2.18-.09-4.12.77-5.82,2.59-1.26,1.35-1.93,2.86-2.02,4.53-.09,1.67.47,3.99,1.68,6.94,1.24,3.04,2.01,5.04,2.3,6,.3.96.46,2.06.49,3.29.03,1.23-.16,2.41-.57,3.53-.41,1.12-1.05,2.16-1.93,3.1-2.34,2.51-5.07,3.62-8.19,3.33-3.11-.29-6.06-1.72-8.82-4.3-2.02-1.89-3.74-4.07-5.15-6.54l3.61-2.27Z"/>
    <path class="cls-1" d="m76.43,434.68l7.25,10.54,30.96-21.29,2.72,3.95-30.96,21.29,7.28,10.59-3.22,2.21-17.24-25.08,3.22-2.22Z"/>
    <path class="cls-1" d="m76.66,377.39c4.45-1.8,8.07-2.21,10.85-1.23,2.79.98,4.93,3.31,6.42,7,3.01,7.43.27,12.86-8.22,16.3l-26.46,10.71-1.81-4.47,26.06-10.54c6.14-2.49,8.31-5.95,6.51-10.41-.9-2.23-2.29-3.58-4.17-4.04-1.88-.46-4.45-.03-7.72,1.3l-26,10.52-1.81-4.47,26.36-10.67Z"/>
    <path class="cls-1" d="m36.58,327.3l43.06,7.04.88,5.72-38.94,19.72-.77-5,33.74-16.72-37.22-5.83-.76-4.94Z"/>
    <path class="cls-1" d="m36.45,270.42l41.2,7.21-.21,4.46-23.68,5.97,23.02,8.11-.21,4.58-41.69,3.24.22-4.76,33.85-1.93-20.1-7.05.23-4.82,20.73-5.19-33.58-5.12.22-4.7Z"/>
    <path class="cls-1" d="m88.78,226l-1.4,5.17-19.16,5.72,13.68,14.52-1.4,5.16-16.94-18.32-23.09,7.43,1.44-5.34,18.53-5.56-13.18-14.23,1.38-5.11,16.25,17.86,23.88-7.31Z"/>
    <path class="cls-1" d="m72.44,163.86l15.04,22.47,15.75,8.21-2.22,4.25-15.75-8.21-27.03.53,2.51-4.82,21.14-.15-11.96-17.45,2.52-4.82Z"/>
    <path class="cls-1" d="m107.64,122.66l13.33,36.84,12.42-14.87,3.23,2.69-15.94,19.09-2.6-2.17-13.43-36.8-12.05,14.42-3.22-2.7,15.62-18.71,2.64,2.2Z"/>
    <path class="cls-1" d="m176.72,112.99l-13.62,10.55-9.07-11.72-6.04,4.68,5.45,14.53-3.91,3.02-14.91-40.92,16.58-12.83,2.57,3.32-9.67,7.49,7.87,10.16,9.14-7.07,2.58,3.33-9.14,7.07,9.81,12.67,9.81-7.59,2.57,3.32Zm-25.27-4.49l-11.07-14.3-.53.41,6.65,17.72,4.95-3.83Z"/>
    <path class="cls-1" d="m196.83,59.42c4.44,1.96,8.36,6.56,11.78,13.79,2.98,6.31,4.16,11.65,3.53,16.02-.62,4.37-3.05,7.55-7.27,9.54-2.2,1.04-4.38,1.48-6.56,1.34l.19,4.6-3.59,1.69-.28-7.21c-4.44-1.87-8.38-6.47-11.84-13.79-2.99-6.33-4.17-11.68-3.54-16.05s3.04-7.55,7.24-9.53c2.23-1.05,4.44-1.49,6.61-1.3l-.2-4.91,3.64-1.72.3,7.53Zm-3.59,3.68c-1.67-.4-3.31-.22-4.94.55-2.69,1.27-4.11,3.59-4.24,6.96-.13,3.37.99,7.57,3.36,12.6,2.18,4.61,4.51,8,7,10.15l-1.18-30.27Zm4.91,32.38c1.66.41,3.31.23,4.92-.54,5.53-2.61,5.84-9.13.92-19.55-2.24-4.75-4.55-8.14-6.94-10.15l1.1,30.24Z"/>
    <path class="cls-1" d="m244.39,42.3s3.63,6.03,10.9,18.14l10.94,18.2-4.93,1.13-7.7-13.14-13.27,3.03-1.3,15.19-4.87,1.11,3.87-42.14c-1.79-.82-2.9-2.13-3.31-3.95-.34-1.49-.1-2.89.73-4.21.83-1.31,1.99-2.14,3.48-2.48s2.9-.1,4.22.73c1.32.82,2.16,1.98,2.5,3.47.41,1.79,0,3.44-1.23,4.93Zm-3.51-.44c.88-.2,1.57-.69,2.06-1.48.49-.79.64-1.62.44-2.5-.2-.88-.69-1.56-1.48-2.05-.78-.49-1.62-.63-2.5-.43-.86.19-1.54.68-2.03,1.46-.5.78-.64,1.6-.44,2.48.2.88.69,1.57,1.47,2.06.78.5,1.61.64,2.48.44Zm10.42,20.96l-9.12-15.53-1.45,17.94,10.58-2.42Z"/>
  </g>
</svg>