<?xml version="1.0" encoding="UTF-8"?>
<svg xmlns="http://www.w3.org/2000/svg" xmlns:xlink="http://www.w3.org/1999/xlink" viewBox="0 0 276.86 276.85">
  <defs>
    <style>
      .cls-1 {
        font-size: 19.26px;
      }

      .cls-1, .cls-2 {
        fill: #231f20;
        font-family: AndaleMono, 'Andale Mono';
      }

      .cls-2 {
        font-size: 19.26px;
      }

      .cls-3 {
        clip-path: url(#clippath);
      }

      .cls-4 {
        stroke-width: 0px;
      }

      .cls-4, .cls-5 {
        fill: none;
      }

      .cls-6 {
        clip-path: url(#clippath-1);
      }

      .cls-5 {
        stroke: #000;
        stroke-miterlimit: 10;
        stroke-width: .5px;
      }
    </style>
    <clipPath id="clippath">
      <path class="cls-4" d="m138.87,2.29C63.47,2.29,2.34,63.42,2.34,138.82s61.13,136.54,136.54,136.54,136.54-61.13,136.54-136.54S214.28,2.29,138.87,2.29Zm0,245.75c-60.32,0-109.21-48.9-109.21-109.21S78.56,29.61,138.87,29.61s109.21,48.9,109.21,109.21-48.9,109.21-109.21,109.21Z"/>
    </clipPath>
    <clipPath id="clippath-1">
      <path class="cls-4" d="m138.87,2.29C63.47,2.29,2.34,63.42,2.34,138.82s61.13,136.54,136.54,136.54,136.54-61.13,136.54-136.54S214.28,2.29,138.87,2.29Zm0,245.75c-60.32,0-109.21-48.9-109.21-109.21S78.56,29.61,138.87,29.61s109.21,48.9,109.21,109.21-48.9,109.21-109.21,109.21Z"/>
    </clipPath>
  </defs>
  <g id="Layer_1" data-name="Layer 1">
    <g class="cls-3">
      <g>
        <g>
          <path class="cls-5" d="m138.87,138.82L108.16,5.79c10.07-2.32,20.38-3.5,30.71-3.5v136.54Z"/>
          <path class="cls-5" d="m138.87,138.82L81.17,15.08c9.36-4.37,16.92-6.97,26.99-9.29l30.71,133.04Z"/>
          <path class="cls-5" d="m138.87,138.82L54.81,31.23c8.14-6.36,16.99-11.79,26.36-16.15l57.7,123.74Z"/>
          <path class="cls-5" d="m138.87,138.82L34.28,51.06c6.64-7.91,12.39-13.47,20.53-19.83l84.06,107.59Z"/>
          <path class="cls-5" d="m138.87,138.82L17.22,76.84c4.69-9.2,10.42-17.86,17.06-25.78l104.59,87.76Z"/>
          <path class="cls-5" d="m138.87,138.82L6.99,103.49c2.67-9.98,5.54-17.44,10.23-26.65l121.66,61.99Z"/>
          <path class="cls-5" d="m138.87,138.82L2.52,131.68c.54-10.32,1.79-18.21,4.47-28.19l131.88,35.34Z"/>
          <path class="cls-5" d="m138.87,138.82L4.41,162.53c-1.79-10.17-2.43-20.54-1.89-30.86l136.35,7.15Z"/>
          <path class="cls-5" d="m138.87,138.82L12.28,189.97c-3.87-9.58-6.07-17.26-7.87-27.44l134.46-23.71Z"/>
          <path class="cls-5" d="m138.87,138.82L27.03,217.14c-5.93-8.46-10.88-17.59-14.75-27.17l126.59-51.15Z"/>
          <path class="cls-5" d="m138.87,138.82l-93.12,99.86c-7.56-7.05-12.8-13.08-18.73-21.54l111.84-78.31Z"/>
          <path class="cls-5" d="m138.87,138.82l-70.32,117.03c-8.86-5.32-15.24-10.13-22.8-17.18l93.12-99.86Z"/>
          <path class="cls-5" d="m138.87,138.82l-42.19,129.85c-9.83-3.19-19.27-7.5-28.13-12.82l70.32-117.03Z"/>
          <path class="cls-5" d="m138.87,138.82l-14.27,135.79c-10.27-1.08-18.1-2.74-27.92-5.93l42.19-129.85Z"/>
          <path class="cls-5" d="m138.87,138.82l16.64,135.52c-10.25,1.26-20.64,1.35-30.91.27l14.27-135.79Z"/>
          <path class="cls-5" d="m138.87,138.82l44.45,129.1c-9.77,3.36-17.56,5.16-27.81,6.42l-16.64-135.52Z"/>
          <path class="cls-5" d="m138.87,138.82l72.35,115.79c-8.76,5.47-18.13,9.94-27.9,13.31l-44.45-129.1Z"/>
          <path class="cls-5" d="m138.87,138.82l94.85,98.22c-7.43,7.18-13.73,12.1-22.49,17.57l-72.35-115.79Z"/>
          <path class="cls-5" d="m138.87,138.82l113.19,76.35c-5.78,8.56-10.92,14.69-18.35,21.87l-94.85-98.22Z"/>
          <path class="cls-5" d="m138.87,138.82l127.47,48.93c-3.7,9.64-8.5,18.86-14.27,27.42l-113.19-76.35Z"/>
          <path class="cls-5" d="m138.87,138.82l134.86,21.36c-1.62,10.2-3.69,17.93-7.39,27.57l-127.47-48.93Z"/>
          <path class="cls-5" d="m138.87,138.82l136.2-9.52c.72,10.31.27,20.68-1.35,30.88l-134.86-21.36Z"/>
          <path class="cls-5" d="m138.87,138.82l131.25-37.63c2.85,9.93,4.24,17.8,4.96,28.11l-136.2,9.52Z"/>
          <path class="cls-5" d="m138.87,138.82l120.55-64.1c4.85,9.12,7.85,16.53,10.69,26.47l-131.25,37.63Z"/>
          <path class="cls-5" d="m138.87,138.82l103.05-89.58c6.78,7.8,12.66,16.35,17.51,25.48l-120.55,64.1Z"/>
          <path class="cls-5" d="m138.87,138.82L221.04,29.78c8.25,6.22,14.1,11.67,20.88,19.47l-103.05,89.58Z"/>
          <path class="cls-5" d="m138.87,138.82L194.41,14.09c9.44,4.2,18.38,9.47,26.64,15.69l-82.17,109.04Z"/>
          <path class="cls-5" d="m138.87,138.82L167.26,5.27c10.11,2.15,17.71,4.62,27.15,8.82l-55.53,124.73Z"/>
          <path class="cls-5" d="m138.87,138.82V2.29c10.33,0,18.28.84,28.39,2.98l-28.39,133.55Z"/>
        </g>
        <text class="cls-2" transform="translate(156.37 25.29) rotate(11.83)"><tspan x="0" y="0"> </tspan></text>
        <text class="cls-2" transform="translate(169.54 28.16) rotate(18.61)"><tspan x="0" y="0">A</tspan></text>
        <text class="cls-2" transform="translate(180.2 31.74) rotate(24.29)"><tspan x="0" y="0"> </tspan></text>
        <text class="cls-2" transform="translate(192.45 37.39) rotate(31.07)"><tspan x="0" y="0">B</tspan></text>
        <text class="cls-2" transform="translate(202.09 43.18) rotate(36.71)"><tspan x="0" y="0"> </tspan></text>
        <text class="cls-2" transform="translate(212.85 51.35) rotate(43.44)"><tspan x="0" y="0">C</tspan></text>
        <text class="cls-2" transform="translate(221.03 59.07) rotate(49.04)"><tspan x="0" y="0"> </tspan></text>
        <text class="cls-2" transform="translate(229.78 69.33) rotate(55.75)"><tspan x="0" y="0">D</tspan></text>
        <text class="cls-2" transform="translate(236.13 78.62) rotate(61.37)"><tspan x="0" y="0"> </tspan></text>
        <text class="cls-2" transform="translate(242.49 90.52) rotate(68.14)"><tspan x="0" y="0">E</tspan></text>
        <text class="cls-2" transform="translate(246.7 100.96) rotate(73.8)"><tspan x="0" y="0"> </tspan></text>
        <text class="cls-2" transform="translate(250.35 113.94) rotate(80.61)"><tspan x="0" y="0">F</tspan></text>
        <text class="cls-2" transform="translate(252.2 125.05) rotate(86.26)"><tspan x="0" y="0"> </tspan></text>
        <text class="cls-2" transform="translate(252.93 138.51) rotate(92.6)"><tspan x="0" y="0">G</tspan></text>
        <text class="cls-2" transform="translate(252.4 149.77) rotate(98.51)"><tspan x="0" y="0"> </tspan></text>
        <text class="cls-2" transform="translate(250.3 163.07) rotate(105.26)"><tspan x="0" y="0">H</tspan></text>
        <text class="cls-2" transform="translate(247.35 173.94) rotate(110.94)"><tspan x="0" y="0"> </tspan></text>
        <text class="cls-2" transform="translate(242.42 186.5) rotate(117.74)"><tspan x="0" y="0">I</tspan></text>
        <text class="cls-2" transform="translate(237.2 196.46) rotate(123.38)"><tspan x="0" y="0"> </tspan></text>
        <text class="cls-2" transform="translate(229.68 207.66) rotate(130.13)"><tspan x="0" y="0">J</tspan></text>
        <text class="cls-2" transform="translate(222.44 216.27) rotate(135.73)"><tspan x="0" y="0"> </tspan></text>
        <text class="cls-2" transform="translate(212.71 225.6) rotate(142.44)"><tspan x="0" y="0">K</tspan></text>
        <text class="cls-2" transform="translate(203.79 232.48) rotate(148.05)"><tspan x="0" y="0"> </tspan></text>
        <text class="cls-2" transform="translate(192.28 239.53) rotate(154.8)"><tspan x="0" y="0">L</tspan></text>
        <text class="cls-2" transform="translate(182.12 244.33) rotate(160.45)"><tspan x="0" y="0"> </tspan></text>
        <text class="cls-2" transform="translate(169.36 248.73) rotate(167.25)"><tspan x="0" y="0">M</tspan></text>
        <text class="cls-2" transform="translate(158.37 251.23) rotate(172.93)"><tspan x="0" y="0"> </tspan></text>
        <text class="cls-2" transform="translate(144.99 252.78) rotate(179.66)"><tspan x="0" y="0">N</tspan></text>
        <text class="cls-2" transform="translate(133.74 252.86) rotate(-174.79)"><tspan x="0" y="0"> </tspan></text>
        <text class="cls-2" transform="translate(120.3 251.52) rotate(-168.08)"><tspan x="0" y="0">O</tspan></text>
        <text class="cls-2" transform="translate(109.3 249.22) rotate(-162.42)"><tspan x="0" y="0"> </tspan></text>
        <text class="cls-2" transform="translate(96.46 245.03) rotate(-155.61)"><tspan x="0" y="0">P</tspan></text>
        <text class="cls-2" transform="translate(86.23 240.4) rotate(-149.96)"><tspan x="0" y="0"> </tspan></text>
        <text class="cls-2" transform="translate(74.6 233.55) rotate(-143.19)"><tspan x="0" y="0">Q</tspan></text>
        <text class="cls-2" transform="translate(65.58 226.82) rotate(-137.58)"><tspan x="0" y="0"> </tspan></text>
        <text class="cls-2" transform="translate(55.69 217.63) rotate(-130.86)"><tspan x="0" y="0">R</tspan></text>
        <text class="cls-2" transform="translate(48.32 209.13) rotate(-125.27)"><tspan x="0" y="0"> </tspan></text>
        <text class="cls-2" transform="translate(40.62 198.05) rotate(-118.53)"><tspan x="0" y="0">S</tspan></text>
        <text class="cls-2" transform="translate(35.24 188.18) rotate(-112.9)"><tspan x="0" y="0"> </tspan></text>
        <text class="cls-2" transform="translate(30.09 175.69) rotate(-106.1)"><tspan x="0" y="0">T</tspan></text>
        <text class="cls-2" transform="translate(26.96 164.91) rotate(-100.43)"><tspan x="0" y="0"> </tspan></text>
        <text class="cls-2" transform="translate(24.63 151.61) rotate(-93.65)"><tspan x="0" y="0">U</tspan></text>
        <text class="cls-2" transform="translate(23.9 140.38) rotate(-88.06)"><tspan x="0" y="0"> </tspan></text>
        <text class="cls-2" transform="translate(24.47 126.89) rotate(-81.4)"><tspan x="0" y="0">V</tspan></text>
        <text class="cls-2" transform="translate(26.14 115.75) rotate(-75.76)"><tspan x="0" y="0"> </tspan></text>
        <text class="cls-2" transform="translate(29.56 102.73) rotate(-68.97)"><tspan x="0" y="0">W</tspan></text>
        <text class="cls-2" transform="translate(33.58 92.23) rotate(-63.3)"><tspan x="0" y="0"> </tspan></text>
        <text class="cls-2" transform="translate(39.74 80.23) rotate(-56.53)"><tspan x="0" y="0">X</tspan></text>
        <text class="cls-2" transform="translate(45.93 70.84) rotate(-50.9)"><tspan x="0" y="0"> </tspan></text>
        <text class="cls-2" transform="translate(54.54 60.42) rotate(-44.17)"><tspan x="0" y="0">Y</tspan></text>
        <text class="cls-2" transform="translate(62.6 52.57) rotate(-38.58)"><tspan x="0" y="0"> </tspan></text>
        <text class="cls-2" transform="translate(73.22 44.25) rotate(-31.86)"><tspan x="0" y="0">Z</tspan></text>
        <text class="cls-2" transform="translate(82.77 38.3) rotate(-26.23)"><tspan x="0" y="0"> </tspan></text>
        <text class="cls-2" transform="translate(94.92 32.44) rotate(-19.45)"><tspan x="0" y="0">Æ</tspan></text>
        <text class="cls-2" transform="translate(105.52 28.68) rotate(-13.78)"><tspan x="0" y="0"> </tspan></text>
        <text class="cls-2" transform="translate(118.65 25.57) rotate(-6.98)"><tspan x="0" y="0">Ø</tspan></text>
        <text class="cls-2" transform="translate(129.81 24.19) rotate(-1.36)"><tspan x="0" y="0"> </tspan></text>
        <text class="cls-2" transform="translate(143.3 23.99) rotate(5.3)"><tspan x="0" y="0">Å</tspan></text>
      </g>
    </g>
    <circle class="cls-5" cx="138.87" cy="138.82" r="109.21"/>
  </g>
  <g id="Layer_2" data-name="Layer 2">
    <g id="Layer_1-2" data-name="Layer 1">
      <g class="cls-6">
        <g>
          <g>
            <path class="cls-5" d="m138.87,138.82L108.16,5.79c10.07-2.32,20.38-3.5,30.71-3.5v136.54Z"/>
            <path class="cls-5" d="m138.87,138.82L81.17,15.08c9.36-4.37,16.92-6.97,26.99-9.29l30.71,133.04Z"/>
            <path class="cls-5" d="m138.87,138.82L54.81,31.23c8.14-6.36,16.99-11.79,26.36-16.15l57.7,123.74Z"/>
            <path class="cls-5" d="m138.87,138.82L34.28,51.06c6.64-7.91,12.39-13.47,20.53-19.83l84.06,107.59Z"/>
            <path class="cls-5" d="m138.87,138.82L17.22,76.84c4.69-9.2,10.42-17.86,17.06-25.78l104.59,87.76Z"/>
            <path class="cls-5" d="m138.87,138.82L6.99,103.49c2.67-9.98,5.54-17.44,10.23-26.65l121.66,61.99Z"/>
            <path class="cls-5" d="m138.87,138.82L2.52,131.68c.54-10.32,1.79-18.21,4.47-28.19l131.88,35.34Z"/>
            <path class="cls-5" d="m138.87,138.82L4.41,162.53c-1.79-10.17-2.43-20.54-1.89-30.86l136.35,7.15Z"/>
            <path class="cls-5" d="m138.87,138.82L12.28,189.97c-3.87-9.58-6.07-17.26-7.87-27.44l134.46-23.71Z"/>
            <path class="cls-5" d="m138.87,138.82L27.03,217.14c-5.93-8.46-10.88-17.59-14.75-27.17l126.59-51.15Z"/>
            <path class="cls-5" d="m138.87,138.82l-93.12,99.86c-7.56-7.05-12.8-13.08-18.73-21.54l111.84-78.31Z"/>
            <path class="cls-5" d="m138.87,138.82l-70.32,117.03c-8.86-5.32-15.24-10.13-22.8-17.18l93.12-99.86Z"/>
            <path class="cls-5" d="m138.87,138.82l-42.19,129.85c-9.83-3.19-19.27-7.5-28.13-12.82l70.32-117.03Z"/>
            <path class="cls-5" d="m138.87,138.82l-14.27,135.79c-10.27-1.08-18.1-2.74-27.92-5.93l42.19-129.85Z"/>
            <path class="cls-5" d="m138.87,138.82l16.64,135.52c-10.25,1.26-20.64,1.35-30.91.27l14.27-135.79Z"/>
            <path class="cls-5" d="m138.87,138.82l44.45,129.1c-9.77,3.36-17.56,5.16-27.81,6.42l-16.64-135.52Z"/>
            <path class="cls-5" d="m138.87,138.82l72.35,115.79c-8.76,5.47-18.13,9.94-27.9,13.31l-44.45-129.1Z"/>
            <path class="cls-5" d="m138.87,138.82l94.85,98.22c-7.43,7.18-13.73,12.1-22.49,17.57l-72.35-115.79Z"/>
            <path class="cls-5" d="m138.87,138.82l113.19,76.35c-5.78,8.56-10.92,14.69-18.35,21.87l-94.85-98.22Z"/>
            <path class="cls-5" d="m138.87,138.82l127.47,48.93c-3.7,9.64-8.5,18.86-14.27,27.42l-113.19-76.35Z"/>
            <path class="cls-5" d="m138.87,138.82l134.86,21.36c-1.62,10.2-3.69,17.93-7.39,27.57l-127.47-48.93Z"/>
            <path class="cls-5" d="m138.87,138.82l136.2-9.52c.72,10.31.27,20.68-1.35,30.88l-134.86-21.36Z"/>
            <path class="cls-5" d="m138.87,138.82l131.25-37.63c2.85,9.93,4.24,17.8,4.96,28.11l-136.2,9.52Z"/>
            <path class="cls-5" d="m138.87,138.82l120.55-64.1c4.85,9.12,7.85,16.53,10.69,26.47l-131.25,37.63Z"/>
            <path class="cls-5" d="m138.87,138.82l103.05-89.58c6.78,7.8,12.66,16.35,17.51,25.48l-120.55,64.1Z"/>
            <path class="cls-5" d="m138.87,138.82L221.04,29.78c8.25,6.22,14.1,11.67,20.88,19.47l-103.05,89.58Z"/>
            <path class="cls-5" d="m138.87,138.82L194.41,14.09c9.44,4.2,18.38,9.47,26.64,15.69l-82.17,109.04Z"/>
            <path class="cls-5" d="m138.87,138.82L167.26,5.27c10.11,2.15,17.71,4.62,27.15,8.82l-55.53,124.73Z"/>
            <path class="cls-5" d="m138.87,138.82V2.29c10.33,0,18.28.84,28.39,2.98l-28.39,133.55Z"/>
          </g>
          <text class="cls-1" transform="translate(156.35 25.23) rotate(11.83)"><tspan x="0" y="0"> </tspan></text>
          <text class="cls-1" transform="translate(169.52 28.1) rotate(18.61)"><tspan x="0" y="0">A</tspan></text>
          <text class="cls-1" transform="translate(180.19 31.68) rotate(24.29)"><tspan x="0" y="0"> </tspan></text>
          <text class="cls-1" transform="translate(192.43 37.33) rotate(31.07)"><tspan x="0" y="0">B</tspan></text>
          <text class="cls-1" transform="translate(202.07 43.12) rotate(36.71)"><tspan x="0" y="0"> </tspan></text>
          <text class="cls-1" transform="translate(212.83 51.29) rotate(43.44)"><tspan x="0" y="0">C</tspan></text>
          <text class="cls-1" transform="translate(221.01 59.01) rotate(49.04)"><tspan x="0" y="0"> </tspan></text>
          <text class="cls-1" transform="translate(229.76 69.27) rotate(55.75)"><tspan x="0" y="0">D</tspan></text>
          <text class="cls-1" transform="translate(236.11 78.56) rotate(61.37)"><tspan x="0" y="0"> </tspan></text>
          <text class="cls-1" transform="translate(242.47 90.46) rotate(68.14)"><tspan x="0" y="0">E</tspan></text>
          <text class="cls-1" transform="translate(246.68 100.9) rotate(73.8)"><tspan x="0" y="0"> </tspan></text>
          <text class="cls-1" transform="translate(250.33 113.88) rotate(80.61)"><tspan x="0" y="0">F</tspan></text>
          <text class="cls-1" transform="translate(252.18 124.99) rotate(86.26)"><tspan x="0" y="0"> </tspan></text>
          <text class="cls-1" transform="translate(252.91 138.45) rotate(92.6)"><tspan x="0" y="0">G</tspan></text>
          <text class="cls-1" transform="translate(252.38 149.71) rotate(98.51)"><tspan x="0" y="0"> </tspan></text>
          <text class="cls-1" transform="translate(250.28 163.01) rotate(105.26)"><tspan x="0" y="0">H</tspan></text>
          <text class="cls-1" transform="translate(247.33 173.88) rotate(110.94)"><tspan x="0" y="0"> </tspan></text>
          <text class="cls-1" transform="translate(242.41 186.42) rotate(117.72)"><tspan x="0" y="0">I</tspan></text>
          <text class="cls-1" transform="translate(237.18 196.4) rotate(123.38)"><tspan x="0" y="0"> </tspan></text>
          <text class="cls-1" transform="translate(229.66 207.6) rotate(130.13)"><tspan x="0" y="0">J</tspan></text>
          <text class="cls-1" transform="translate(222.42 216.21) rotate(135.73)"><tspan x="0" y="0"> </tspan></text>
          <text class="cls-1" transform="translate(212.69 225.54) rotate(142.44)"><tspan x="0" y="0">K</tspan></text>
          <text class="cls-1" transform="translate(203.77 232.42) rotate(148.05)"><tspan x="0" y="0"> </tspan></text>
          <text class="cls-1" transform="translate(192.26 239.46) rotate(154.8)"><tspan x="0" y="0">L</tspan></text>
          <text class="cls-1" transform="translate(182.1 244.26) rotate(160.45)"><tspan x="0" y="0"> </tspan></text>
          <text class="cls-1" transform="translate(169.35 248.67) rotate(167.25)"><tspan x="0" y="0">M</tspan></text>
          <text class="cls-1" transform="translate(158.36 251.17) rotate(172.93)"><tspan x="0" y="0"> </tspan></text>
          <text class="cls-1" transform="translate(144.97 252.72) rotate(179.66)"><tspan x="0" y="0">N</tspan></text>
          <text class="cls-1" transform="translate(133.72 252.8) rotate(-174.79)"><tspan x="0" y="0"> </tspan></text>
          <text class="cls-1" transform="translate(120.29 251.46) rotate(-168.08)"><tspan x="0" y="0">O</tspan></text>
          <text class="cls-1" transform="translate(109.28 249.15) rotate(-162.42)"><tspan x="0" y="0"> </tspan></text>
          <text class="cls-1" transform="translate(96.44 244.97) rotate(-155.61)"><tspan x="0" y="0">P</tspan></text>
          <text class="cls-1" transform="translate(86.21 240.34) rotate(-149.96)"><tspan x="0" y="0"> </tspan></text>
          <text class="cls-1" transform="translate(74.58 233.48) rotate(-143.19)"><tspan x="0" y="0">Q</tspan></text>
          <text class="cls-1" transform="translate(65.56 226.76) rotate(-137.58)"><tspan x="0" y="0"> </tspan></text>
          <text class="cls-1" transform="translate(55.69 217.58) rotate(-130.87)"><tspan x="0" y="0">R</tspan></text>
          <text class="cls-1" transform="translate(48.3 209.07) rotate(-125.27)"><tspan x="0" y="0"> </tspan></text>
          <text class="cls-1" transform="translate(40.6 197.99) rotate(-118.53)"><tspan x="0" y="0">S</tspan></text>
          <text class="cls-1" transform="translate(35.22 188.12) rotate(-112.9)"><tspan x="0" y="0"> </tspan></text>
          <text class="cls-1" transform="translate(30.07 175.63) rotate(-106.1)"><tspan x="0" y="0">T</tspan></text>
          <text class="cls-1" transform="translate(26.94 164.85) rotate(-100.43)"><tspan x="0" y="0"> </tspan></text>
          <text class="cls-1" transform="translate(24.61 151.55) rotate(-93.65)"><tspan x="0" y="0">U</tspan></text>
          <text class="cls-1" transform="translate(23.88 140.32) rotate(-88.06)"><tspan x="0" y="0"> </tspan></text>
          <text class="cls-1" transform="translate(24.45 126.83) rotate(-81.4)"><tspan x="0" y="0">V</tspan></text>
          <text class="cls-1" transform="translate(26.12 115.69) rotate(-75.76)"><tspan x="0" y="0"> </tspan></text>
          <text class="cls-1" transform="translate(29.54 102.67) rotate(-68.97)"><tspan x="0" y="0">W</tspan></text>
          <text class="cls-1" transform="translate(33.56 92.17) rotate(-63.31)"><tspan x="0" y="0"> </tspan></text>
          <text class="cls-1" transform="translate(39.72 80.17) rotate(-56.53)"><tspan x="0" y="0">X</tspan></text>
          <text class="cls-1" transform="translate(45.92 70.78) rotate(-50.9)"><tspan x="0" y="0"> </tspan></text>
          <text class="cls-1" transform="translate(54.53 60.36) rotate(-44.17)"><tspan x="0" y="0">Y</tspan></text>
          <text class="cls-1" transform="translate(62.58 52.51) rotate(-38.58)"><tspan x="0" y="0"> </tspan></text>
          <text class="cls-1" transform="translate(73.2 44.19) rotate(-31.86)"><tspan x="0" y="0">Z</tspan></text>
          <text class="cls-1" transform="translate(82.75 38.24) rotate(-26.23)"><tspan x="0" y="0"> </tspan></text>
          <text class="cls-1" transform="translate(94.9 32.38) rotate(-19.45)"><tspan x="0" y="0">Æ</tspan></text>
          <text class="cls-1" transform="translate(105.5 28.62) rotate(-13.78)"><tspan x="0" y="0"> </tspan></text>
          <text class="cls-1" transform="translate(118.63 25.51) rotate(-6.98)"><tspan x="0" y="0">Ø</tspan></text>
          <text class="cls-1" transform="translate(129.79 24.13) rotate(-1.36)"><tspan x="0" y="0"> </tspan></text>
          <text class="cls-1" transform="translate(143.28 23.93) rotate(5.3)"><tspan x="0" y="0">Å</tspan></text>
        </g>
      </g>
      <circle class="cls-5" cx="138.87" cy="138.82" r="109.21"/>
    </g>
  </g>
</svg>